<?xml version="1.0" standalone="no"?>
<!DOCTYPE svg PUBLIC "-//W3C//DTD SVG 20010904//EN"
 "http://www.w3.org/TR/2001/REC-SVG-20010904/DTD/svg10.dtd">
<svg version="1.0" xmlns="http://www.w3.org/2000/svg"
 width="512.000000pt" height="512.000000pt" viewBox="0 0 512.000000 512.000000"
 preserveAspectRatio="xMidYMid meet">
<metadata>
Created by potrace 1.15, written by Peter Selinger 2001-2017
</metadata>
<g transform="translate(0.000000,512.000000) scale(0.100000,-0.100000)"
fill="#000000" stroke="none">
<path d="M350 5101 c-89 -29 -141 -60 -206 -125 -65 -65 -102 -127 -128 -215
-14 -50 -16 -256 -16 -2201 0 -2354 -4 -2183 57 -2305 33 -64 134 -165 198
-198 122 -61 -49 -57 2305 -57 2354 0 2183 -4 2305 57 64 33 165 134 198 198
61 122 57 -49 57 2305 0 2354 4 2183 -57 2305 -33 64 -134 165 -198 198 -122
61 49 57 -2309 56 -2033 0 -2154 -1 -2206 -18z m4166 -888 c-8 -32 -140 -481
-191 -648 -18 -60 -61 -204 -95 -320 -87 -298 -137 -466 -170 -575 -16 -52
-70 -234 -120 -405 -143 -484 -160 -534 -207 -630 -174 -352 -500 -630 -853
-726 -230 -62 -469 -60 -667 6 -156 52 -266 120 -391 239 -223 213 -338 528
-312 853 14 184 31 262 90 408 67 168 166 320 300 459 150 156 197 185 725
446 489 242 792 390 900 440 33 16 265 130 515 254 250 124 461 226 469 226 9
0 11 -8 7 -27z m-2881 -872 c338 -128 398 -151 408 -160 4 -4 -21 -25 -55 -46
-257 -157 -476 -435 -574 -728 -45 -133 -65 -262 -65 -414 1 -68 -3 -123 -7
-123 -4 0 -17 26 -29 58 -11 31 -54 138 -93 237 -40 99 -85 212 -100 250 -15
39 -138 346 -273 684 -136 337 -245 617 -242 621 2 4 174 -57 382 -135 208
-78 500 -188 648 -244z"/>
<path d="M2525 2610 c-141 -20 -252 -76 -360 -185 -132 -131 -188 -264 -188
-445 0 -180 56 -314 188 -445 131 -132 265 -188 445 -188 180 0 314 56 445
188 132 131 188 265 188 445 0 180 -56 314 -188 446 -65 66 -96 89 -165 122
-124 58 -243 79 -365 62z"/>
</g>
</svg>
